<?xml version="1.0" encoding="utf-8" standalone="no"?>
<!DOCTYPE svg PUBLIC "-//W3C//DTD SVG 1.1//EN"
  "http://www.w3.org/Graphics/SVG/1.1/DTD/svg11.dtd">
<svg xmlns:xlink="http://www.w3.org/1999/xlink" width="612.773747pt" height="288.72pt" viewBox="0 0 612.773747 288.72" xmlns="http://www.w3.org/2000/svg" version="1.1">
 <metadata>
  <rdf:RDF xmlns:dc="http://purl.org/dc/elements/1.1/" xmlns:cc="http://creativecommons.org/ns#" xmlns:rdf="http://www.w3.org/1999/02/22-rdf-syntax-ns#">
   <cc:Work>
    <dc:type rdf:resource="http://purl.org/dc/dcmitype/StillImage"/>
    <dc:date>2026-10-09T14:08:29.857548</dc:date>
    <dc:format>image/svg+xml</dc:format>
    <dc:creator>
     <cc:Agent>
      <dc:title>Matplotlib v3.11.2, https://matplotlib.org/</dc:title>
     </cc:Agent>
    </dc:creator>
   </cc:Work>
  </rdf:RDF>
 </metadata>
 <defs>
  <style type="text/css">*{stroke-linejoin: round; stroke-linecap: butt}</style>
 </defs>
 <g id="figure_1">
  <g id="patch_1">
   <path d="M 0 288.72 
L 612.773747 288.72 
L 612.773747 0 
L 0 0 
z
" style="fill: #ffffff"/>
  </g>
  <g id="axes_1">
   <g id="patch_2">
    <path d="M 77.19516 228.742941 
L 407.11824 228.742941 
Q 413.31204 228.742941 413.31204 222.628235 
L 413.31204 15.135882 
Q 413.31204 9.021176 407.11824 9.021176 
L 77.19516 9.021176 
Q 71.00136 9.021176 71.00136 15.135882 
L 71.00136 222.628235 
Q 71.00136 228.742941 77.19516 228.742941 
L 77.19516 228.742941 
z
" clip-path="url(#p6c50d58f1f)" style="fill: none; stroke-dasharray: 3.2,2.4; stroke-dashoffset: 0; stroke: #8a8984; stroke-width: 0.8; stroke-linejoin: miter"/>
   </g>
   <g id="patch_3">
    <path d="M 11.74734 106.652647 
L 55.51686 106.652647 
Q 60.4719 106.652647 60.4719 101.760882 
L 60.4719 60.588529 
Q 60.4719 55.696765 55.51686 55.696765 
L 11.74734 55.696765 
Q 6.7923 55.696765 6.7923 60.588529 
L 6.7923 101.760882 
Q 6.7923 106.652647 11.74734 106.652647 
z
" clip-path="url(#p6c50d58f1f)" style="fill: #eef5ee; stroke: #8a8984; stroke-width: 0.9; stroke-linejoin: miter"/>
   </g>
   <g id="patch_4">
    <path d="M 11.74734 171.876176 
L 55.51686 171.876176 
Q 60.4719 171.876176 60.4719 166.984412 
L 60.4719 125.812059 
Q 60.4719 120.920294 55.51686 120.920294 
L 11.74734 120.920294 
Q 6.7923 120.920294 6.7923 125.812059 
L 6.7923 166.984412 
Q 6.7923 171.876176 11.74734 171.876176 
z
" clip-path="url(#p6c50d58f1f)" style="fill: #eef5ee; stroke: #8a8984; stroke-width: 0.9; stroke-linejoin: miter"/>
   </g>
   <g id="patch_5">
    <path d="M 96.39594 157.608529 
L 162.87606 157.608529 
Q 167.8311 157.608529 167.8311 152.716765 
L 167.8311 78.932647 
Q 167.8311 74.040882 162.87606 74.040882 
L 96.39594 74.040882 
Q 91.4409 74.040882 91.4409 78.932647 
L 91.4409 152.716765 
Q 91.4409 157.608529 96.39594 157.608529 
z
" clip-path="url(#p6c50d58f1f)" style="fill: #f4f6f9; stroke: #8a8984; stroke-width: 0.9; stroke-linejoin: miter"/>
   </g>
   <g id="patch_6">
    <path d="M 96.39594 220.793824 
L 162.87606 220.793824 
Q 167.8311 220.793824 167.8311 215.902059 
L 167.8311 174.729706 
Q 167.8311 169.837941 162.87606 169.837941 
L 96.39594 169.837941 
Q 91.4409 169.837941 91.4409 174.729706 
L 91.4409 215.902059 
Q 91.4409 220.793824 96.39594 220.793824 
z
" clip-path="url(#p6c50d58f1f)" style="fill: #eaf1fb; stroke: #8a8984; stroke-width: 0.9; stroke-linejoin: miter"/>
   </g>
   <g id="patch_7">
    <path d="M 62.08507 82.001993 
Q 75.955024 88.307904 88.705417 94.104812 
" clip-path="url(#p6c50d58f1f)" style="fill: none; stroke: #52514e; stroke-width: 1.1; stroke-linecap: round"/>
    <path d="M 85.891845 90.628634 
L 88.705417 94.104812 
L 84.236332 94.269963 
z
" clip-path="url(#p6c50d58f1f)" style="fill: #52514e; stroke: #52514e; stroke-width: 1.1; stroke-linecap: round"/>
   </g>
   <g id="patch_8">
    <path d="M 62.08507 145.570949 
Q 75.955024 139.265037 88.705417 133.468129 
" clip-path="url(#p6c50d58f1f)" style="fill: none; stroke: #52514e; stroke-width: 1.1; stroke-linecap: round"/>
    <path d="M 84.236332 133.302978 
L 88.705417 133.468129 
L 85.891845 136.944307 
z
" clip-path="url(#p6c50d58f1f)" style="fill: #52514e; stroke: #52514e; stroke-width: 1.1; stroke-linecap: round"/>
   </g>
   <g id="patch_9">
    <path d="M 129.636 168.039457 
Q 129.636 163.722984 129.636 160.636348 
" clip-path="url(#p6c50d58f1f)" style="fill: none; stroke: #52514e; stroke-width: 1.1; stroke-linecap: round"/>
    <path d="M 127.636 164.636348 
L 129.636 160.636348 
L 131.636 164.636348 
z
" clip-path="url(#p6c50d58f1f)" style="fill: #52514e; stroke: #52514e; stroke-width: 1.1; stroke-linecap: round"/>
   </g>
   <g id="patch_10">
    <path d="M 108.78354 66.295588 
L 228.94326 66.295588 
Q 233.8983 66.295588 233.8983 61.403824 
L 233.8983 20.231471 
Q 233.8983 15.339706 228.94326 15.339706 
L 108.78354 15.339706 
Q 103.8285 15.339706 103.8285 20.231471 
L 103.8285 61.403824 
Q 103.8285 66.295588 108.78354 66.295588 
z
" clip-path="url(#p6c50d58f1f)" style="fill: #fff5ec; stroke: #8a8984; stroke-width: 0.9; stroke-linejoin: miter"/>
   </g>
   <g id="patch_11">
    <path d="M 129.636 68.09238 
Q 129.636 69.96473 129.636 70.607243 
" clip-path="url(#p6c50d58f1f)" style="fill: none; stroke-dasharray: 3.3,2.2; stroke-dashoffset: 0; stroke: #eb6834; stroke-width: 1.1; stroke-linecap: round"/>
    <path d="M 131.636 66.607243 
L 129.636 70.607243 
L 127.636 66.607243 
z
" clip-path="url(#p6c50d58f1f)" style="fill: #eb6834; stroke-dasharray: 3.3,2.2; stroke-dashoffset: 0; stroke: #eb6834; stroke-width: 1.1; stroke-linecap: round"/>
   </g>
   <g id="patch_12">
    <path d="M 262.38978 102.168529 
L 395.35002 102.168529 
Q 398.65338 102.168529 398.65338 98.907353 
L 398.65338 82.193824 
Q 398.65338 78.932647 395.35002 78.932647 
L 262.38978 78.932647 
Q 259.08642 78.932647 259.08642 82.193824 
L 259.08642 98.907353 
Q 259.08642 102.168529 262.38978 102.168529 
z
" clip-path="url(#p6c50d58f1f)" style="fill: #fff5ec; stroke: #8a8984; stroke-width: 0.7; stroke-linejoin: miter"/>
   </g>
   <g id="patch_13">
    <path d="M 262.38978 128.257941 
L 395.35002 128.257941 
Q 398.65338 128.257941 398.65338 124.996765 
L 398.65338 108.283235 
Q 398.65338 105.022059 395.35002 105.022059 
L 262.38978 105.022059 
Q 259.08642 105.022059 259.08642 108.283235 
L 259.08642 124.996765 
Q 259.08642 128.257941 262.38978 128.257941 
z
" clip-path="url(#p6c50d58f1f)" style="fill: #f4f6f9; stroke: #8a8984; stroke-width: 0.7; stroke-linejoin: miter"/>
   </g>
   <g id="patch_14">
    <path d="M 262.38978 154.347353 
L 395.35002 154.347353 
Q 398.65338 154.347353 398.65338 151.086176 
L 398.65338 134.372647 
Q 398.65338 131.111471 395.35002 131.111471 
L 262.38978 131.111471 
Q 259.08642 131.111471 259.08642 134.372647 
L 259.08642 151.086176 
Q 259.08642 154.347353 262.38978 154.347353 
z
" clip-path="url(#p6c50d58f1f)" style="fill: #f4f6f9; stroke: #8a8984; stroke-width: 0.7; stroke-linejoin: miter"/>
   </g>
   <g id="patch_15">
    <path d="M 262.38978 180.436765 
L 395.35002 180.436765 
Q 398.65338 180.436765 398.65338 177.175588 
L 398.65338 160.462059 
Q 398.65338 157.200882 395.35002 157.200882 
L 262.38978 157.200882 
Q 259.08642 157.200882 259.08642 160.462059 
L 259.08642 177.175588 
Q 259.08642 180.436765 262.38978 180.436765 
z
" clip-path="url(#p6c50d58f1f)" style="fill: #f4f6f9; stroke: #8a8984; stroke-width: 0.7; stroke-linejoin: miter"/>
   </g>
   <g id="patch_16">
    <path d="M 169.621407 87.36077 
Q 213.252354 88.920002 255.654248 90.435312 
" clip-path="url(#p6c50d58f1f)" style="fill: none; stroke: #52514e; stroke-width: 1.1; stroke-linecap: round"/>
    <path d="M 251.728228 88.293731 
L 255.654248 90.435312 
L 251.585372 92.291179 
z
" clip-path="url(#p6c50d58f1f)" style="fill: #52514e; stroke: #52514e; stroke-width: 1.1; stroke-linecap: round"/>
   </g>
   <g id="patch_17">
    <path d="M 405.122191 116.64 
Q 402.992441 116.64 402.092529 116.64 
" clip-path="url(#p6c50d58f1f)" style="fill: none; stroke-dasharray: 3.3,2.2; stroke-dashoffset: 0; stroke: #eb6834; stroke-width: 1.1; stroke-linecap: round"/>
    <path d="M 406.092529 118.64 
L 402.092529 116.64 
L 406.092529 114.64 
z
" clip-path="url(#p6c50d58f1f)" style="fill: #eb6834; stroke-dasharray: 3.3,2.2; stroke-dashoffset: 0; stroke: #eb6834; stroke-width: 1.1; stroke-linecap: round"/>
   </g>
   <g id="patch_18">
    <path d="M 405.122191 142.729412 
Q 402.992441 142.729412 402.092529 142.729412 
" clip-path="url(#p6c50d58f1f)" style="fill: none; stroke-dasharray: 3.3,2.2; stroke-dashoffset: 0; stroke: #eb6834; stroke-width: 1.1; stroke-linecap: round"/>
    <path d="M 406.092529 144.729412 
L 402.092529 142.729412 
L 406.092529 140.729412 
z
" clip-path="url(#p6c50d58f1f)" style="fill: #eb6834; stroke-dasharray: 3.3,2.2; stroke-dashoffset: 0; stroke: #eb6834; stroke-width: 1.1; stroke-linecap: round"/>
   </g>
   <g id="patch_19">
    <path d="M 256.879186 173.302941 
Q 213.664675 173.302941 171.680002 173.302941 
" clip-path="url(#p6c50d58f1f)" style="fill: none; stroke-dasharray: 3.3,2.2; stroke-dashoffset: 0; stroke: #2a78d6; stroke-width: 1.1; stroke-linecap: round"/>
    <path d="M 175.680002 175.302941 
L 171.680002 173.302941 
L 175.680002 171.302941 
z
" clip-path="url(#p6c50d58f1f)" style="fill: #2a78d6; stroke-dasharray: 3.3,2.2; stroke-dashoffset: 0; stroke: #2a78d6; stroke-width: 1.1; stroke-linecap: round"/>
   </g>
   <g id="patch_20">
    <path d="M 251.86032 162.417824 
Q 251.86032 135.025571 251.86032 109.310369 
" clip-path="url(#p6c50d58f1f)" style="fill: none; stroke: #eb6834; stroke-width: 1.5; stroke-linecap: round"/>
    <path d="M 249.86032 113.310369 
L 251.86032 109.310369 
L 253.86032 113.310369 
z
" clip-path="url(#p6c50d58f1f)" style="fill: #eb6834; stroke: #eb6834; stroke-width: 1.5; stroke-linecap: round"/>
   </g>
   <g id="line2d_1">
    <path d="M 234.51768 21.250588 
L 407.11824 21.250588 
L 407.11824 142.729412 
" clip-path="url(#p6c50d58f1f)" style="fill: none; stroke-dasharray: 3.3,2.2; stroke-dashoffset: 0; stroke: #eb6834; stroke-width: 1.1"/>
   </g>
   <g id="text_1">
    <text style="font-style: italic; font-size: 7.5px; font-family: 'Segoe UI', 'DejaVu Sans'; text-anchor: end; fill: #8a8984" x="408.357" y="222.497495" transform="rotate(-0 408.357 222.497495)">System boundary</text>
   </g>
   <g id="text_2">
    <text style="font-weight: 700; font-size: 9.5px; font-family: 'Segoe UI', 'DejaVu Sans'; text-anchor: middle; fill: #0b0b0b" x="33.6321" y="71.901792" transform="rotate(-0 33.6321 71.901792)">Supply</text>
   </g>
   <g id="text_3">
    <text style="font-size: 7.6px; font-family: 'Segoe UI', 'DejaVu Sans'; fill: #52514e" transform="translate(13.640538 86.099192)">through the</text>
    <text style="font-size: 7.6px; font-family: 'Segoe UI', 'DejaVu Sans'; fill: #52514e" transform="translate(23.464131 96.220997)">intake</text>
   </g>
   <g id="text_4">
    <text style="font-weight: 700; font-size: 9.5px; font-family: 'Segoe UI', 'DejaVu Sans'; text-anchor: middle; fill: #0b0b0b" x="33.6321" y="137.125322" transform="rotate(-0 33.6321 137.125322)">Outside</text>
   </g>
   <g id="text_5">
    <text style="font-size: 7.6px; font-family: 'Segoe UI', 'DejaVu Sans'; fill: #52514e" transform="translate(13.386413 151.307284)">input across</text>
    <text style="font-size: 7.6px; font-family: 'Segoe UI', 'DejaVu Sans'; fill: #52514e" transform="translate(11.072569 160.59487)">the boundary</text>
   </g>
   <g id="text_6">
    <text style="font-weight: 700; font-size: 9.5px; font-family: 'Segoe UI', 'DejaVu Sans'; text-anchor: middle; fill: #0b0b0b" x="129.636" y="90.357238" transform="rotate(-0 129.636 90.357238)">Shared flow</text>
   </g>
   <g id="text_7">
    <text style="font-size: 8px; font-family: 'Segoe UI', 'DejaVu Sans'; fill: #52514e" transform="translate(106.57725 105.682688)">what reaches</text>
    <text style="font-size: 8px; font-family: 'Segoe UI', 'DejaVu Sans'; fill: #52514e" transform="translate(106.61725 114.56972)">the parts this</text>
    <text style="font-size: 8px; font-family: 'Segoe UI', 'DejaVu Sans'; fill: #52514e" transform="translate(108.500375 124.329876)">step; what a</text>
    <text style="font-size: 8px; font-family: 'Segoe UI', 'DejaVu Sans'; fill: #52514e" transform="translate(105.85975 134.090032)">part does not</text>
    <text style="font-size: 8px; font-family: 'Segoe UI', 'DejaVu Sans'; fill: #52514e" transform="translate(106.819125 143.828938)">draw stays in</text>
    <text style="font-size: 8px; font-family: 'Segoe UI', 'DejaVu Sans'; fill: #52514e" transform="translate(115.374125 154.52597)">the flow</text>
   </g>
   <g id="text_8">
    <text style="font-weight: 700; font-size: 9.5px; font-family: 'Segoe UI', 'DejaVu Sans'; text-anchor: middle; fill: #0b0b0b" x="129.636" y="185.92626" transform="rotate(-0 129.636 185.92626)">Stores</text>
   </g>
   <g id="text_9">
    <text style="font-size: 7.4px; font-family: 'Segoe UI', 'DejaVu Sans'; fill: #52514e" transform="translate(99.086719 200.500882)">drawn first; release</text>
    <text style="font-size: 7.4px; font-family: 'Segoe UI', 'DejaVu Sans'; fill: #52514e" transform="translate(95.812797 209.115667)">limited (proportional</text>
    <text style="font-size: 7.4px; font-family: 'Segoe UI', 'DejaVu Sans'; fill: #52514e" transform="translate(112.141938 218.163468)">by default)</text>
   </g>
   <g id="text_10">
    <text style="font-size: 7px; font-family: 'Segoe UI', 'DejaVu Sans'; text-anchor: start; fill: #52514e" x="133.7652" y="165.78158" transform="rotate(-0 133.7652 165.78158)">store draw</text>
   </g>
   <g id="text_11">
    <text style="font-weight: 700; font-size: 9.5px; font-family: 'Segoe UI', 'DejaVu Sans'; text-anchor: middle; fill: #0b0b0b" x="168.8634" y="31.428024" transform="rotate(-0 168.8634 31.428024)">Governor</text>
   </g>
   <g id="text_12">
    <text style="font-size: 6.4px; font-family: 'Segoe UI', 'DejaVu Sans'; fill: #52514e" transform="translate(120.9659 41.445945)">holds its targets by setting access:</text>
    <text style="font-size: 6.4px; font-family: 'Segoe UI', 'DejaVu Sans'; fill: #52514e" transform="translate(114.9724 49.25407)">store release, intake, gates, routes and</text>
    <text style="font-size: 6.4px; font-family: 'Segoe UI', 'DejaVu Sans'; fill: #52514e" transform="translate(107.7984 57.113195)">the access of each part whose access it sets</text>
   </g>
   <g id="text_13">
    <text style="font-weight: 700; font-size: 8.6px; font-family: 'Segoe UI', 'DejaVu Sans'; text-anchor: middle; fill: #0b0b0b" x="337.1283" y="32.257059" transform="rotate(-0 337.1283 32.257059)">The ordered draw</text>
   </g>
   <g id="text_14">
    <text style="font-size: 7.4px; font-family: 'Segoe UI', 'DejaVu Sans'; text-anchor: middle; fill: #52514e" x="337.1283" y="44.078824" transform="rotate(-0 337.1283 44.078824)">each setting met in order of priority</text>
   </g>
   <g id="text_15">
    <text style="font-weight: 700; font-size: 8.1px; font-family: 'Segoe UI', 'DejaVu Sans'; text-anchor: start; fill: #0b0b0b" x="265.48668" y="88.744707" transform="rotate(-0 265.48668 88.744707)">1  The top</text>
   </g>
   <g id="text_16">
    <text style="font-size: 7.1px; font-family: 'Segoe UI', 'DejaVu Sans'; text-anchor: start; fill: #52514e" x="265.48668" y="97.495505" transform="rotate(-0 265.48668 97.495505)">the protected flow; others limited first</text>
   </g>
   <g id="text_17">
    <text style="font-weight: 700; font-size: 8.1px; font-family: 'Segoe UI', 'DejaVu Sans'; text-anchor: start; fill: #0b0b0b" x="265.48668" y="114.834119" transform="rotate(-0 265.48668 114.834119)">2  Supports and the intake</text>
   </g>
   <g id="text_18">
    <text style="font-size: 7.1px; font-family: 'Segoe UI', 'DejaVu Sans'; text-anchor: start; fill: #52514e" x="265.48668" y="123.654322" transform="rotate(-0 265.48668 123.654322)">full draws, in rank order</text>
   </g>
   <g id="text_19">
    <text style="font-weight: 700; font-size: 8.1px; font-family: 'Segoe UI', 'DejaVu Sans'; text-anchor: start; fill: #0b0b0b" x="265.48668" y="140.903913" transform="rotate(-0 265.48668 140.903913)">3  Other parts, by rank</text>
   </g>
   <g id="text_20">
    <text style="font-size: 7.1px; font-family: 'Segoe UI', 'DejaVu Sans'; text-anchor: start; fill: #52514e" x="265.48668" y="149.674328" transform="rotate(-0 265.48668 149.674328)">full draws, upkeep before work</text>
   </g>
   <g id="text_21">
    <text style="font-weight: 700; font-size: 8.1px; font-family: 'Segoe UI', 'DejaVu Sans'; text-anchor: start; fill: #0b0b0b" x="265.48668" y="167.139584" transform="rotate(-0 265.48668 167.139584)">4  What is left</text>
   </g>
   <g id="text_22">
    <text style="font-size: 7.1px; font-family: 'Segoe UI', 'DejaVu Sans'; text-anchor: start; fill: #52514e" x="265.48668" y="175.744881" transform="rotate(-0 265.48668 175.744881)">rebuild, or refill stores, by marginal value</text>
   </g>
   <g id="text_23">
    <text style="font-size: 7px; font-family: 'Segoe UI', 'DejaVu Sans'; fill: #52514e" transform="translate(197.695 75.053442)">access by</text>
    <text style="font-size: 7px; font-family: 'Segoe UI', 'DejaVu Sans'; fill: #52514e" transform="translate(201.102578 82.736625)">priority</text>
   </g>
   <g id="text_24">
    <text style="font-size: 7px; font-family: 'Segoe UI', 'DejaVu Sans'; text-anchor: middle; fill: #52514e" x="319.5792" y="17.739208" transform="rotate(-0 319.5792 17.739208)">sets the access it controls</text>
   </g>
   <g id="text_25">
    <text style="font-size: 7px; font-family: 'Segoe UI', 'DejaVu Sans'; text-anchor: middle; fill: #52514e" x="212.22" y="183.451268" transform="rotate(-0 212.22 183.451268)">refill</text>
   </g>
   <g id="text_26">
    <text style="font-size: 7.2px; font-family: 'Segoe UI', 'DejaVu Sans'; fill: #52514e" transform="translate(228.452186 167.274132) rotate(-90)">under scarcity, access</text>
    <text style="font-size: 7.2px; font-family: 'Segoe UI', 'DejaVu Sans'; fill: #52514e" transform="translate(237.403811 170.670507) rotate(-90)">is cut from the lowest-</text>
    <text style="font-size: 7.2px; font-family: 'Segoe UI', 'DejaVu Sans'; fill: #52514e" transform="translate(244.688186 146.296257) rotate(-90)">ranked part up</text>
   </g>
   <g id="text_27">
    <text style="font-weight: 700; font-size: 8px; font-family: 'Segoe UI', 'DejaVu Sans'; text-anchor: start; fill: #0b0b0b" x="7.8246" y="247.478346" transform="rotate(-0 7.8246 247.478346)">The resource ledger:</text>
   </g>
   <g id="text_28">
    <text style="font-size: 6.9px; font-family: 'Segoe UI', 'DejaVu Sans'; text-anchor: start; fill: #52514e" x="92.4732" y="247.235377" transform="rotate(-0 92.4732 247.235377)">with the flow fully used and no part above its reference: gap = store draw + outside input + shortfall at named parts. Access decides which parts go short, not how much.</text>
   </g>
   <g id="text_29">
    <text style="font-weight: 700; font-size: 8px; font-family: 'Segoe UI', 'DejaVu Sans'; text-anchor: start; fill: #0b0b0b" x="7.8246" y="263.066512" transform="rotate(-0 7.8246 263.066512)">Residue in units:</text>
   </g>
   <g id="text_30">
    <text style="font-size: 7.6px; font-family: 'Segoe UI', 'DejaVu Sans'; text-anchor: start; fill: #52514e" x="92.4732" y="262.906434" transform="rotate(-0 92.4732 262.906434)">switched off (route back kept) → lost (rebuildable) → scarred (lost for good).</text>
   </g>
   <g id="text_31">
    <text style="font-weight: 700; font-size: 8px; font-family: 'Segoe UI', 'DejaVu Sans'; text-anchor: start; fill: #0b0b0b" x="7.8246" y="278.5571" transform="rotate(-0 7.8246 278.5571)">Failure:</text>
   </g>
   <g id="text_32">
    <text style="font-size: 7.6px; font-family: 'Segoe UI', 'DejaVu Sans'; text-anchor: start; fill: #52514e" x="92.4732" y="278.397022" transform="rotate(-0 92.4732 278.397022)">collapse when the protected flow cannot be met or a non-bypassable link is cut; death only when no route back remains.</text>
   </g>
  </g>
 </g>
 <defs>
  <clipPath id="p6c50d58f1f">
   <rect x="5.76" y="5.76" width="412.92" height="277.2"/>
  </clipPath>
 </defs>
</svg>
